<?xml version="1.0" encoding="iso-8859-1"?>
<!-- Generator: Adobe Illustrator 16.0.0, SVG Export Plug-In . SVG Version: 6.00 Build 0)  -->
<!DOCTYPE svg PUBLIC "-//W3C//DTD SVG 1.1//EN" "http://www.w3.org/Graphics/SVG/1.1/DTD/svg11.dtd">
<svg version="1.1" id="Capa_1" xmlns="http://www.w3.org/2000/svg" xmlns:xlink="http://www.w3.org/1999/xlink" x="0px" y="0px"
	 width="502.66px" height="502.66px" viewBox="0 0 502.66 502.66" style="enable-background:new 0 0 502.66 502.66;"
	 xml:space="preserve">
<g>
	<path d="M76.945,0l20.75,426.728l30.726-1.492L109.239,30.762h284.112l-2.973,58.468l-9.053-0.002l2.65-52.072l-255.164,70.203
		l20.489,395.301l214.285-79.586l3.213-48.492h9.072l-2.574,50.619l30.726,1.562L425.715,0H76.945z M169.295,308.826
		c-5.922,0-10.723-6.045-10.723-13.504c0-7.455,4.801-13.5,10.723-13.5c5.922,0,10.723,6.045,10.723,13.5
		C180.018,302.781,175.217,308.826,169.295,308.826z M368.844,324.623l9.939-185.441l9.057,0.002l-9.428,185.441L368.844,324.623z"
		/>
</g>
<g>
</g>
<g>
</g>
<g>
</g>
<g>
</g>
<g>
</g>
<g>
</g>
<g>
</g>
<g>
</g>
<g>
</g>
<g>
</g>
<g>
</g>
<g>
</g>
<g>
</g>
<g>
</g>
<g>
</g>
</svg>
