<svg xmlns="http://www.w3.org/2000/svg" width="612" height="612" viewBox="0 0 612 612"><path d="M408.029 407.918c-54.48 0-105.698-21.213-144.225-59.729-79.511-79.534-79.511-208.926 0-288.438C302.325 21.225 353.549.006 408.029.006c54.479 0 105.697 21.219 144.225 59.746C590.781 98.273 612 149.485 612 203.965s-21.219 105.698-59.746 144.225c-38.525 38.521-89.744 59.728-144.225 59.728zm0-378.725c-46.683 0-90.573 18.184-123.59 51.2-68.134 68.135-68.134 179.016 0 247.162 33.011 33.005 76.908 51.184 123.59 51.184 46.688 0 90.579-18.179 123.59-51.188 33.01-33.011 51.199-76.902 51.199-123.584S564.633 113.4 531.619 80.395c-33.016-33.018-76.902-51.202-123.59-51.202z"/><path d="M244.179 382.421a14.56 14.56 0 0 1-10.32-4.273c-5.703-5.696-5.703-14.938-.006-20.635l23.385-23.396c5.703-5.709 14.944-5.709 20.641-.006 5.703 5.69 5.703 14.938.006 20.635L254.5 378.142a14.535 14.535 0 0 1-10.321 4.279z"/><path d="M75.56 611.994c-20.186 0-39.158-7.863-53.424-22.13C7.863 575.598 0 556.626 0 536.44c0-20.185 7.863-39.156 22.135-53.43l116.27-116.264c14.272-14.272 33.244-22.136 53.43-22.136 20.18 0 39.157 7.856 53.424 22.136 29.45 29.461 29.45 77.393.006 106.854L128.972 589.871c-14.261 14.266-33.233 22.123-53.412 22.123zm116.275-238.195c-12.387 0-24.033 4.821-32.795 13.583L42.77 503.652c-8.762 8.763-13.583 20.401-13.583 32.788-.006 12.388 4.822 24.027 13.583 32.783 8.756 8.763 20.402 13.583 32.789 13.583 12.381 0 24.021-4.82 32.771-13.577l116.293-116.27c18.073-18.084 18.073-47.499-.006-65.577-8.749-8.762-20.395-13.583-32.782-13.583zm216.194-41.516c-34.277 0-66.5-13.352-90.742-37.583-50.021-50.038-50.021-131.441 0-181.467 24.236-24.237 56.465-37.587 90.742-37.587 34.276 0 66.5 13.35 90.729 37.587 50.027 50.021 50.027 131.429 0 181.461-24.229 24.244-56.446 37.589-90.729 37.589zm0-227.443c-26.479 0-51.381 10.315-70.107 29.035-38.644 38.649-38.644 101.536 0 140.191 18.728 18.721 43.623 29.035 70.107 29.035 26.479 0 51.375-10.314 70.096-29.035 38.644-38.655 38.649-101.542 0-140.191-18.721-18.72-43.611-29.035-70.096-29.035z"/></svg>