<svg xmlns="http://www.w3.org/2000/svg" width="502.66" height="502.66" viewBox="0 0 502.66 502.66"><path d="M76.945 0l20.75 426.728 30.726-1.492-19.182-394.474h284.112l-2.973 58.468-9.053-.002 2.65-52.072-255.164 70.203L149.3 502.66l214.285-79.586 3.213-48.492h9.072l-2.574 50.619 30.726 1.562L425.715 0H76.945zm92.35 308.826c-5.922 0-10.723-6.045-10.723-13.504 0-7.455 4.801-13.5 10.723-13.5 5.922 0 10.723 6.045 10.723 13.5 0 7.459-4.801 13.504-10.723 13.504zm199.549 15.797l9.939-185.441 9.057.002-9.428 185.441-9.568-.002z"/></svg>